<svg xmlns="http://www.w3.org/2000/svg" viewBox="0 0 498.96 541.04"><defs><style>.cls-1{fill:#fff;}</style></defs><title>logo</title><g id="Layer_2" data-name="Layer 2"><g id="Layer_1-2" data-name="Layer 1"><path class="cls-1" d="M499,142.42V140.5A140.49,140.49,0,0,0,358.46,0H52.76A52.76,52.76,0,0,0,0,52.76V488.61A52.42,52.42,0,0,0,52.42,541h306A140.5,140.5,0,0,0,499,400.54v-1.92a140.51,140.51,0,0,0-82.71-128.1A140.54,140.54,0,0,0,499,142.42ZM290,320.29c0,1.45-.07,2.89-.2,4.32,0,.32,0,.64,0,1h0a50,50,0,0,1-.58,7.59,49.58,49.58,0,0,1-1.1,8.32,49.66,49.66,0,0,1-1.65,8.22,49.06,49.06,0,0,1-2.14,8,49.47,49.47,0,0,1-2.61,7.73,50.23,50.23,0,0,1-3.13,7.57,49.66,49.66,0,0,1-3.57,7.33,48.9,48.9,0,0,1-4,7,50.28,50.28,0,0,1-4.44,6.77,49.39,49.39,0,0,1-4.85,6.47,50,50,0,0,1-5.21,6.14,50.23,50.23,0,0,1-5.55,5.75,49.48,49.48,0,0,1-5.95,5.44,49.63,49.63,0,0,1-6.28,5.08,49.91,49.91,0,0,1-6.52,4.63,50.16,50.16,0,0,1-6.9,4.26,50.69,50.69,0,0,1-7.16,3.84,49.45,49.45,0,0,1-7.36,3.36,48.47,48.47,0,0,1-7.67,2.91,49.23,49.23,0,0,1-7.9,2.45,49.32,49.32,0,0,1-8.08,1.94,49.76,49.76,0,0,1-8.24,1.4,50,50,0,0,1-8.46.89,51,51,0,0,1-6.22.4h0c-.68,0-1.35,0-2-.06-1.05.07-2.11.12-3.18.12h0c-.84,0-1.69,0-2.52-.07s-1.68.07-2.53.07h0a49.77,49.77,0,0,1-49.77-49.77h0A49.77,49.77,0,0,1,154,349.58h0c.85,0,1.69,0,2.53.06s1.68-.06,2.52-.06h0c.68,0,1.35,0,2,.05s1.45-.08,2.19-.09,1.26-.15,1.89-.2,1.28-.24,1.92-.34,1.23-.3,1.84-.43,1.18-.38,1.77-.55,1.14-.45,1.72-.66,1.16-.54,1.74-.79,1.07-.58,1.61-.86,1-.65,1.54-1,1-.74,1.54-1.1l1.41-1.13c.44-.41.88-.82,1.34-1.22s.85-.91,1.29-1.36.79-.92,1.19-1.38.71-1,1.08-1.45.65-1,1-1.52.62-1.1.95-1.65.53-1.1.8-1.64.45-1.14.7-1.7.4-1.22.62-1.82.31-1.21.49-1.8.23-1.23.36-1.84.15-1.31.25-2,.08-1.29.14-1.92c0-.33,0-.65,0-1h0c0-1,0-1.94.09-2.89V191.6h-38.1a49.68,49.68,0,0,1-49.68-49.68h0a49.68,49.68,0,0,1,49.68-49.68H240.2a49.68,49.68,0,0,1,49.68,49.68h0V317.39c.06,1,.09,1.93.09,2.9Zm116.79,79.3A50.79,50.79,0,0,1,356,450.38h0a50.79,50.79,0,0,1-50.79-50.79h0A50.79,50.79,0,0,1,356,348.8h0a50.79,50.79,0,0,1,50.79,50.79Z"/></g></g></svg>